<?xml version="1.0" standalone="no"?>
<!DOCTYPE svg PUBLIC "-//W3C//DTD SVG 20010904//EN"
 "http://www.w3.org/TR/2001/REC-SVG-20010904/DTD/svg10.dtd">
<svg version="1.0" xmlns="http://www.w3.org/2000/svg"
 width="32.000000pt" height="32.000000pt" viewBox="0 0 32.000000 32.000000"
 preserveAspectRatio="xMidYMid meet">

<g transform="translate(0.000000,32.000000) scale(0.100000,-0.100000)"
fill="#000000" stroke="none">
<path d="M100 309 c-34 -14 -72 -51 -61 -59 6 -3 4 -23 -6 -50 -15 -43 -15
-47 5 -93 17 -38 30 -52 64 -67 47 -22 78 -25 78 -10 0 6 -16 10 -36 10 -28 0
-44 8 -70 34 -30 30 -34 40 -34 86 0 46 4 56 34 86 30 30 40 34 86 34 46 0 56
-4 86 -34 29 -29 34 -41 34 -83 0 -55 -17 -85 -64 -115 -17 -11 -22 -17 -11
-13 47 16 50 16 31 1 -97 -79 -259 45 -217 165 14 41 5 52 -10 13 -24 -64 2
-142 65 -188 39 -29 133 -29 172 0 53 39 69 71 69 134 0 63 -16 95 -67 133
-31 23 -111 32 -148 16z m126 -20 c45 -21 84 -81 84 -129 0 -26 -38 -110 -49
-110 -5 0 3 23 17 50 23 46 24 54 13 92 -16 51 -48 83 -99 99 -38 11 -46 10
-92 -13 -30 -15 -45 -19 -37 -10 16 20 66 41 96 42 14 0 44 -9 67 -21z"/>
<path d="M117 242 c-21 -22 -22 -62 -3 -62 7 0 20 10 28 22 15 23 43 17 34 -8
-3 -8 -1 -14 5 -14 6 0 9 10 7 23 -4 30 -47 37 -55 8 -6 -24 -23 -29 -23 -7 0
20 28 46 50 46 46 0 65 -57 30 -87 -11 -10 -20 -23 -20 -30 0 -7 -5 -13 -11
-13 -7 0 -9 10 -5 26 5 17 3 23 -4 19 -5 -3 -10 -17 -10 -31 0 -17 5 -24 20
-24 11 0 20 6 20 13 0 8 9 22 20 32 41 37 14 105 -42 105 -14 0 -32 -8 -41
-18z"/>
<path d="M147 94 c-14 -14 -7 -35 11 -32 9 2 17 10 17 17 0 16 -18 25 -28 15z
m23 -14 c0 -5 -4 -10 -10 -10 -5 0 -10 5 -10 10 0 6 5 10 10 10 6 0 10 -4 10
-10z"/>
</g>
</svg>
